<svg width="29" height="29" viewBox="0 0 29 29" fill="none" xmlns="http://www.w3.org/2000/svg">
<g clip-path="url(#clip0_21_65)">
<path fill-rule="evenodd" clip-rule="evenodd" d="M5 7C5 5.34315 6.34315 4 8 4H22C23.6569 4 25 5.34315 25 7V21C25 22.6569 23.6569 24 22 24H8C6.34315 24 5 22.6569 5 21V7ZM22 6H8C7.44772 6 7 6.44772 7 7V16L9.87868 13.1213C11.0503 11.9497 12.9497 11.9497 14.1213 13.1213L22.7071 21.7071C22.8881 21.5261 23 21.2761 23 21V7C23 6.44772 22.5523 6 22 6ZM21 10.0002C21 11.1047 20.1046 12.0002 19 12.0002C17.8954 12.0002 17 11.1047 17 10.0002C17 8.89558 17.8954 8.00015 19 8.00015C20.1046 8.00015 21 8.89558 21 10.0002Z" fill="#687287"/>
</g>
<defs>
<clipPath id="clip0_21_65">
<rect width="29" height="29" fill="white"/>
</clipPath>
</defs>
</svg>