<svg width="40" height="40" viewBox="0 0 40 40" fill="none" xmlns="http://www.w3.org/2000/svg">
<circle cx="20" cy="20" r="20" fill="#D9D9D9"/>
<path d="M26.4793 18.5062H21.5207V13.527C21.5207 12.7303 20.8595 12 20 12C19.2066 12 18.4793 12.6639 18.4793 13.527V18.5062H13.5207C12.7273 18.5062 12 19.1701 12 20.0332C12 20.8963 12.6612 21.4938 13.5207 21.4938H18.4793V26.473C18.4793 27.2697 19.1405 28 20 28C20.7934 28 21.5207 27.3361 21.5207 26.473V21.4938H26.4793C27.2727 21.4938 28 20.8299 28 20.0332C28 19.2365 27.2727 18.5062 26.4793 18.5062Z" fill="#1C2033"/>
</svg>