<svg width="23" height="23" viewBox="0 0 23 23" fill="none" xmlns="http://www.w3.org/2000/svg">
<path d="M10.9648 1.91669H12.0352C12.8602 1.91669 13.5926 2.44459 13.8535 3.22725L14.26 4.44668C14.3341 4.66895 14.487 4.85638 14.6899 4.97354L15.557 5.47421C15.7599 5.59139 15.9987 5.63015 16.2283 5.58317L17.4876 5.32549C18.2958 5.1601 19.1192 5.53045 19.5317 6.24491L20.0669 7.17193C20.4794 7.88638 20.3884 8.78465 19.841 9.40191L18.9883 10.3636C18.8328 10.5389 18.747 10.7652 18.747 10.9995V12.0007C18.747 12.235 18.8329 12.4611 18.9883 12.6365L19.8411 13.5982C20.3885 14.2155 20.4795 15.1137 20.067 15.8281L19.5318 16.7552C19.1193 17.4697 18.2959 17.84 17.4877 17.6747L16.2284 17.417C15.9988 17.3699 15.76 17.4087 15.5571 17.5258L14.6899 18.0265C14.487 18.1437 14.3341 18.3311 14.26 18.5534L13.8535 19.7728C13.5926 20.5554 12.8602 21.0834 12.0352 21.0834H10.9648C10.1397 21.0834 9.40734 20.5554 9.14645 19.7728L8.73999 18.5534C8.66589 18.3311 8.51291 18.1437 8.30998 18.0265L7.44283 17.5259C7.23991 17.4087 7.00111 17.37 6.77156 17.417L5.51229 17.6747C4.70404 17.8401 3.88065 17.4698 3.46814 16.7552L2.93293 15.8282C2.52044 15.1138 2.6114 14.2156 3.15876 13.5983L4.01156 12.6365C4.16702 12.4612 4.25286 12.2351 4.25287 12.0007L4.25288 10.9994C4.25288 10.7651 4.16704 10.5389 4.01157 10.3635L3.15878 9.40185C2.61143 8.78458 2.52046 7.88633 2.93296 7.17186L3.46817 6.24485C3.88067 5.53038 4.70407 5.16003 5.5123 5.32543L6.77156 5.58312C7.00112 5.63009 7.23994 5.59134 7.44286 5.47418L8.31 4.97354C8.51292 4.85638 8.66589 4.66894 8.73999 4.44665L9.14645 3.22725C9.40734 2.44459 10.1397 1.91669 10.9648 1.91669ZM11.5 14.8542C13.3525 14.8542 14.8542 13.3525 14.8542 11.5C14.8542 9.64756 13.3525 8.14585 11.5 8.14585C9.64754 8.14585 8.14583 9.64756 8.14583 11.5C8.14583 13.3525 9.64754 14.8542 11.5 14.8542Z" fill="#687287"/>
</svg>