<svg width="11" height="13" viewBox="0 0 11 13" fill="none" xmlns="http://www.w3.org/2000/svg">
<path fill-rule="evenodd" clip-rule="evenodd" d="M1.02326 0C0.458127 0 0 0.495345 0 1.10638V9.40426C0 10.0153 0.458127 10.5106 1.02326 10.5106H8.18605C8.46861 10.5106 8.69767 10.263 8.69767 9.95745V1.10638C8.69767 0.495345 8.23955 0 7.67442 0H1.02326ZM11 3.31915C11 2.86087 10.6564 2.48936 10.2326 2.48936C9.80871 2.48936 9.46512 2.86087 9.46512 3.31915V9.95745C9.46512 10.7212 8.89246 11.3404 8.18605 11.3404H3.5814C3.15755 11.3404 2.81395 11.7119 2.81395 12.1702C2.81395 12.6285 3.15755 13 3.5814 13H8.18605C9.74015 13 11 11.6378 11 9.95745V3.31915Z" fill="#687287"/>
</svg>