<svg width="40" height="40" viewBox="0 0 40 40" fill="none" xmlns="http://www.w3.org/2000/svg">
<circle cx="20" cy="20" r="20" fill="#D9D9D9"/>
<path fill-rule="evenodd" clip-rule="evenodd" d="M25.079 12.3524C25.4661 11.9585 26.0993 11.953 26.4932 12.3401L26.7067 12.5499C27.1006 12.937 27.1061 13.5702 26.719 13.9641L26.1202 14.5734L29.1103 17.5117C29.5042 17.8988 29.5097 18.532 29.1226 18.9259L25.6895 22.4194C25.3024 22.8133 24.6692 22.8189 24.2753 22.4318L16.6553 14.9436C16.2614 14.5565 16.2558 13.9233 16.6429 13.5294L20.076 10.0358C20.4631 9.64193 21.0963 9.6364 21.4902 10.0235L24.4802 12.9618L25.079 12.3524ZM20.8776 20.8607L18.3383 18.3653L11.5278 25.2957C10.8387 25.9969 10.8485 27.124 11.5497 27.8131C12.251 28.5022 13.3781 28.4924 14.0672 27.7911L20.8776 20.8607Z" fill="#1C2033"/>
</svg>