<svg width="29" height="29" viewBox="0 0 29 29" fill="none" xmlns="http://www.w3.org/2000/svg">
<g clip-path="url(#clip0_21_78)">
<path fill-rule="evenodd" clip-rule="evenodd" d="M7.9904 8.75653C8.70073 9.04672 9.53852 9.29178 10.4712 9.47595C10.6487 8.68511 10.8676 7.95586 11.122 7.30632C11.4889 6.36953 11.9437 5.56216 12.4856 4.97698C12.5044 4.95661 12.5235 4.93645 12.5427 4.9165C10.352 5.3808 8.43523 6.60887 7.07129 8.31587C7.3412 8.4687 7.64786 8.61659 7.9904 8.75653ZM7.45646 10.12C8.25972 10.4482 9.18745 10.7185 10.204 10.9189C10.0375 12.0389 9.94775 13.2461 9.94775 14.5002C9.94775 15.7543 10.0375 16.9615 10.204 18.0815C9.18745 18.2819 8.25972 18.5522 7.45646 18.8804C7.02079 19.0583 6.61372 19.2566 6.24496 19.475C5.4009 18.0172 4.9165 16.3165 4.9165 14.5002C4.9165 12.6839 5.4009 10.9832 6.24496 9.52539C6.61372 9.7438 7.02079 9.94205 7.45646 10.12ZM24.0833 14.5002C24.0833 16.3165 23.5989 18.0172 22.7549 19.475C22.3861 19.2566 21.979 19.0583 21.5433 18.8804C20.7401 18.5522 19.8124 18.2819 18.7959 18.0815C18.9623 16.9615 19.0521 15.7543 19.0521 14.5002C19.0521 13.2461 18.9623 12.0389 18.7959 10.9189C19.8124 10.7185 20.7401 10.4482 21.5433 10.12C21.979 9.94205 22.3861 9.7438 22.7549 9.52539C23.5989 10.9832 24.0833 12.6839 24.0833 14.5002ZM18.5286 19.5239C19.4612 19.7081 20.299 19.9532 21.0093 20.2433C21.3518 20.3833 21.6585 20.5312 21.9284 20.684C20.5645 22.391 18.6477 23.6191 16.457 24.0834C16.4763 24.0635 16.4953 24.0432 16.5141 24.0229C17.056 23.4378 17.5108 22.6304 17.8778 21.6936C18.1321 21.044 18.3511 20.3147 18.5286 19.5239ZM17.6144 14.5002C17.6144 15.6884 17.529 16.819 17.3754 17.8549C16.4612 17.7415 15.4955 17.6812 14.4998 17.6812C13.5041 17.6812 12.5386 17.7415 11.6242 17.8549C11.4706 16.819 11.3853 15.6884 11.3853 14.5002C11.3853 13.312 11.4706 12.1815 11.6242 11.1455C12.5386 11.2589 13.5041 11.3192 14.4998 11.3192C15.4955 11.3192 16.4612 11.2589 17.3754 11.1455C17.529 12.1815 17.6144 13.312 17.6144 14.5002ZM11.896 19.3C12.7181 19.202 13.5918 19.1489 14.4998 19.1489C15.4078 19.1489 16.2816 19.202 17.1036 19.3C16.9463 19.9804 16.7572 20.6012 16.5431 21.148C16.2163 21.9824 15.8451 22.6084 15.4698 23.0139C15.0958 23.4176 14.7678 23.5533 14.4998 23.5533C14.2319 23.5533 13.9038 23.4176 13.5299 23.0139C13.1545 22.6084 12.7834 21.9824 12.4566 21.148C12.2424 20.6012 12.0533 19.9804 11.896 19.3ZM11.122 21.6936C10.8676 21.044 10.6487 20.3147 10.4712 19.5239C9.53852 19.7081 8.70073 19.9532 7.99039 20.2433C7.64786 20.3833 7.3412 20.5312 7.07129 20.684C8.43523 22.391 10.352 23.6191 12.5427 24.0834C12.5235 24.0635 12.5044 24.0432 12.4856 24.0229C11.9437 23.4378 11.4889 22.6304 11.122 21.6936ZM14.4998 9.85071C15.4078 9.85071 16.2816 9.79759 17.1036 9.69968C16.9463 9.0192 16.7572 8.39841 16.5431 7.85157C16.2163 7.01715 15.8451 6.39115 15.4698 5.98576C15.0958 5.58192 14.7678 5.44629 14.4998 5.44629C14.2319 5.44629 13.9038 5.58192 13.5299 5.98576C13.1545 6.39115 12.7834 7.01715 12.4566 7.85157C12.2424 8.39841 12.0533 9.0192 11.896 9.69968C12.7181 9.79759 13.5918 9.85071 14.4998 9.85071ZM21.9284 8.31587C21.6585 8.4687 21.3518 8.61659 21.0093 8.75653C20.299 9.04672 19.4612 9.29178 18.5286 9.47595C18.3511 8.68511 18.1321 7.95586 17.8778 7.30632C17.5108 6.36953 17.056 5.56216 16.5141 4.97698C16.4953 4.95661 16.4763 4.93645 16.457 4.9165C18.6477 5.3808 20.5645 6.60887 21.9284 8.31587Z" fill="#687287"/>
</g>
<defs>
<clipPath id="clip0_21_78">
<rect width="29" height="29" fill="white"/>
</clipPath>
</defs>
</svg>