<svg width="40" height="40" viewBox="0 0 40 40" fill="none" xmlns="http://www.w3.org/2000/svg">
<circle cx="20" cy="20" r="20" fill="#D9D9D9"/>
<path d="M25.1042 19.9758L21.2917 23.7258V12.9133C21.2917 12.1633 20.6667 11.5383 19.9167 11.5383C19.1667 11.5383 18.5417 12.1633 18.5417 12.9133V23.7258L14.7292 19.9758C14.1667 19.4133 13.2917 19.4133 12.7292 19.9758C12.1667 20.5383 12.1667 21.4133 12.7292 21.9758L18.9167 28.1008C19.1667 28.3508 19.5417 28.4758 19.9167 28.4758C20.2917 28.4758 20.6042 28.3508 20.9167 28.1008L27.1042 21.9758C27.6667 21.4133 27.6667 20.5383 27.1042 19.9758C26.5417 19.4133 25.6667 19.4133 25.1042 19.9758Z" fill="#1C2033"/>
</svg>