<svg width="29" height="29" viewBox="0 0 29 29" fill="none" xmlns="http://www.w3.org/2000/svg">
<g clip-path="url(#clip0_21_184)">
<path fill-rule="evenodd" clip-rule="evenodd" d="M24.6778 14.8389C24.6778 20.2728 20.2728 24.6778 14.8389 24.6778C9.40502 24.6778 5 20.2728 5 14.8389C5 9.40502 9.40502 5 14.8389 5C20.2728 5 24.6778 9.40502 24.6778 14.8389ZM16.3234 6.85944L17.5713 7.19078L17.0051 9.32322L15.7572 8.99188L16.3234 6.85944ZM12.6699 20.6187L13.9178 20.9501L13.3516 23.0825L12.1037 22.7512L12.6699 20.6187ZM20.0019 13.4572L20.3332 12.2093L11.4353 9.84669L11.104 11.0946L20.0019 13.4572ZM19.4583 15.5047L19.1269 16.7526L10.229 14.39L10.5603 13.1421L19.4583 15.5047ZM18.2771 19.955L18.6085 18.7071L9.71055 16.3445L9.37921 17.5924L18.2771 19.955Z" fill="#687287"/>
</g>
<defs>
<clipPath id="clip0_21_184">
<rect width="29" height="29" fill="white"/>
</clipPath>
</defs>
</svg>