<svg width="40" height="40" viewBox="0 0 40 40" fill="none" xmlns="http://www.w3.org/2000/svg">
<circle cx="20" cy="20" r="20" fill="#D9D9D9"/>
<path d="M16.2265 16.361L21.574 16.4052L13.9284 24.0508C13.3981 24.5811 13.3981 25.465 13.9284 25.9953C14.4588 26.5257 15.3427 26.5257 15.873 25.9953L23.5186 18.3497L23.5628 23.6972C23.5628 24.4927 24.1815 25.1115 24.977 25.1115C25.7725 25.1115 26.3912 24.4927 26.3912 23.6972L26.347 14.991C26.347 14.6374 26.1702 14.2839 25.9051 14.0187C25.6399 13.7535 25.3305 13.621 24.9328 13.5768L16.2265 13.5326C15.431 13.5326 14.8123 14.1513 14.8123 14.9468C14.8123 15.7423 15.431 16.361 16.2265 16.361Z" fill="#1C2033"/>
</svg>