<svg width="38" height="19" viewBox="0 0 38 19" fill="none" xmlns="http://www.w3.org/2000/svg">
<path fill-rule="evenodd" clip-rule="evenodd" d="M7.19953 18.7139C12.289 19.9829 17.4431 16.8859 18.7118 11.7971C19.9805 6.708 16.8838 1.55298 11.7947 0.284258C6.70677 -0.98446 1.55264 2.11283 0.284515 7.20224C-0.984797 12.2908 2.11219 17.4452 7.19953 18.7139ZM11.6471 5.78545C12.9562 6.25823 13.9083 6.95193 13.7005 8.21295C13.5499 9.13608 13.0304 9.57635 12.3471 9.72325C13.2749 10.2239 13.7396 10.9775 13.2671 12.2648C12.6808 13.8637 11.3425 13.9795 9.57047 13.6168L9.11352 15.3388L8.07527 15.0636L8.52624 13.3647C8.25713 13.2936 7.98216 13.2183 7.69896 13.1369L7.24639 14.8437L6.20932 14.5685L6.66632 12.8433C6.56942 12.817 6.47191 12.79 6.37371 12.7628C6.2262 12.722 6.07714 12.6808 5.92625 12.6406L4.57513 12.2824L5.1102 11.0971C5.1102 11.0971 5.87502 11.3128 5.86486 11.2975C6.1588 11.3749 6.29256 11.1845 6.34611 11.057L7.06818 8.33499C7.09368 8.34152 7.11865 8.34817 7.14274 8.35459C7.15469 8.35778 7.16642 8.36091 7.17789 8.36393C7.13659 8.34669 7.09905 8.33545 7.07007 8.3276L7.58523 6.38446C7.60128 6.16323 7.52915 5.8828 7.10865 5.77116C7.12514 5.76042 6.35457 5.57173 6.35457 5.57173L6.64833 4.4628L8.08017 4.843L8.0789 4.84833C8.29419 4.90526 8.51604 4.95962 8.74203 5.01464L9.19458 3.30956L10.2322 3.58474L9.7888 5.25641C10.0674 5.32438 10.3479 5.39297 10.6208 5.4653L11.0611 3.80458L12.0994 4.07977L11.6471 5.78545ZM8.25863 11.9436C9.10561 12.1808 10.9567 12.6993 11.2698 11.5164C11.5906 10.307 9.79428 9.87576 8.91774 9.66535C8.81979 9.64183 8.73333 9.62108 8.66259 9.6023L8.05625 11.8879C8.11435 11.9032 8.18242 11.9223 8.25863 11.9436ZM9.11026 8.60336C9.8164 8.80309 11.3567 9.23876 11.6421 8.16366C11.9335 7.064 10.4355 6.70894 9.70389 6.53554C9.62159 6.51604 9.54899 6.49883 9.48973 6.48312L8.93998 8.55607C8.98881 8.56901 9.04609 8.58521 9.11026 8.60336Z" fill="#495266"/>
<path d="M26.5035 2.41577C26.1936 2.41577 25.9423 2.65648 25.9423 2.95342C25.9423 3.25036 26.1936 3.49107 26.5035 3.49107H27.2752C27.2598 3.54835 27.2516 3.60841 27.2516 3.67029V7.98003L23.3272 14.4263C22.7453 15.3821 23.4648 16.5824 24.6197 16.5824H34.3725C35.5273 16.5824 36.2469 15.3821 35.665 14.4263L31.7406 7.98003V3.67029C31.7406 3.60841 31.7324 3.54835 31.717 3.49107H32.4887C32.7986 3.49107 33.0499 3.25036 33.0499 2.95342C33.0499 2.65648 32.7986 2.41577 32.4887 2.41577H26.5035Z" fill="#FF5454"/>
</svg>