<svg width="29" height="29" viewBox="0 0 29 29" fill="none" xmlns="http://www.w3.org/2000/svg">
<g clip-path="url(#clip0_21_54)">
<g clip-path="url(#clip1_21_54)">
<path fill-rule="evenodd" clip-rule="evenodd" d="M19.7454 12.5573C18.61 17.1114 13.9975 19.883 9.44284 18.7473C4.89008 17.6119 2.11852 12.9991 3.25445 8.44526C4.38932 3.89063 9.00186 1.1188 13.5552 2.25421C18.1095 3.38961 20.8808 8.00294 19.7454 12.5573ZM15.2607 9.34954C15.4467 8.22103 14.5946 7.60022 13.4231 7.17712L13.8278 5.65067L12.8987 5.4044L12.5047 6.89061C12.2604 6.82588 12.0094 6.7645 11.7601 6.70367L12.1569 5.20766L11.2283 4.96139L10.8233 6.4873C10.621 6.43807 10.4225 6.38942 10.2298 6.33847L10.231 6.3337L8.9496 5.99345L8.6867 6.98586C8.6867 6.98586 9.3763 7.15472 9.36154 7.16433C9.73786 7.26424 9.80241 7.5152 9.78805 7.71319L9.32702 9.45214C9.35295 9.45917 9.38654 9.46923 9.42351 9.48466L9.39205 9.4763C9.37049 9.47056 9.34815 9.4646 9.32533 9.45876L8.67913 11.8948C8.6312 12.0088 8.51151 12.1792 8.24845 12.1099C8.25754 12.1236 7.57309 11.9307 7.57309 11.9307L7.09424 12.9913L8.30338 13.3119C8.43842 13.3479 8.57181 13.3848 8.70381 13.4213C8.7917 13.4456 8.87897 13.4698 8.96569 13.4934L8.55672 15.0373L9.48481 15.2836L9.88982 13.7561C10.1433 13.8289 10.3893 13.8963 10.6302 13.9599L10.2266 15.4803L11.1557 15.7266L11.5647 14.1856C13.1505 14.5102 14.3481 14.4065 14.8729 12.9757C15.2957 11.8236 14.8798 11.1492 14.0496 10.7011C14.661 10.5697 15.126 10.1757 15.2607 9.34954ZM13.0855 12.3059C12.8053 13.3645 11.1487 12.9005 10.3907 12.6882C10.3225 12.6691 10.2616 12.652 10.2096 12.6383L10.7522 10.5929C10.8155 10.6097 10.8928 10.6283 10.9804 10.6493L10.9805 10.6493C11.765 10.8376 13.3726 11.2235 13.0855 12.3059ZM13.4186 9.30543C13.1632 10.2676 11.7848 9.87767 11.1528 9.69893C11.0954 9.68269 11.0441 9.66819 11.0004 9.6566L11.4924 7.80148C11.5455 7.81554 11.6104 7.83094 11.6841 7.84839C12.3388 8.00357 13.6794 8.32132 13.4186 9.30543ZM21.0001 3.50001C20.503 3.50001 20.1001 3.90295 20.1001 4.4C20.1001 4.89704 20.503 5.29998 21.0001 5.29998C23.1539 5.29998 24.9 7.04604 24.9 9.19993V13.3999C24.9 13.8969 25.303 14.2999 25.8 14.2999C26.297 14.2999 26.7 13.8969 26.7 13.3999V9.19993C26.7 6.05195 24.1481 3.50001 21.0001 3.50001ZM27 21.2C27 23.8509 24.8509 26 22.2001 26C19.5492 26 17.4001 23.8509 17.4001 21.2C17.4001 18.5492 19.5492 16.4001 22.2001 16.4001C24.8509 16.4001 27 18.5492 27 21.2ZM4.50002 20.0001C4.50002 19.503 4.90297 19.1001 5.40001 19.1001C5.89706 19.1001 6.3 19.503 6.3 20.0001C6.3 22.1539 8.04606 23.9 10.1999 23.9H14.3999C14.8969 23.9 15.2999 24.303 15.2999 24.8C15.2999 25.297 14.8969 25.7 14.3999 25.7H10.1999C7.05197 25.7 4.50002 23.1481 4.50002 20.0001Z" fill="#687287"/>
</g>
</g>
<defs>
<clipPath id="clip0_21_54">
<rect width="29" height="29" fill="white"/>
</clipPath>
<clipPath id="clip1_21_54">
<rect width="29" height="29" fill="white"/>
</clipPath>
</defs>
</svg>
