<svg width="827" height="219" viewBox="0 0 827 219" fill="none" xmlns="http://www.w3.org/2000/svg">
<path fill-rule="evenodd" clip-rule="evenodd" d="M175.034 4.14104C184.184 8.02555 188.454 18.5927 184.569 27.7435L110.99 201.075C104.437 216.51 82.5606 216.509 76.01 201.073L24.4304 79.5318C20.5468 70.3807 24.817 59.8139 33.9682 55.9304C43.1193 52.0468 53.6861 56.317 57.5697 65.4682L93.5024 150.139L151.431 13.6764C155.316 4.52567 165.883 0.256525 175.034 4.14104Z" fill="white"/>
<path d="M40 22C40 33.0457 31.0457 42 20 42C8.9543 42 0 33.0457 0 22C0 10.9543 8.9543 2 20 2C31.0457 2 40 10.9543 40 22Z" fill="#FF6C3A"/>
<path d="M827 22.71C827 33.7557 818.046 42.71 807 42.71C795.954 42.71 787 33.7557 787 22.71C787 11.6643 795.954 2.70996 807 2.70996C818.046 2.70996 827 11.6643 827 22.71Z" fill="#00A3FF"/>
<path fill-rule="evenodd" clip-rule="evenodd" d="M300 36.71C259.683 36.71 227 69.3932 227 109.71C227 150.027 259.683 182.71 300 182.71C340.317 182.71 373 150.027 373 109.71C373 69.3932 340.317 36.71 300 36.71ZM191 109.71C191 49.5109 239.801 0.709961 300 0.709961C360.199 0.709961 409 49.5109 409 109.71C409 169.909 360.199 218.71 300 218.71C239.801 218.71 191 169.909 191 109.71Z" fill="white"/>
<path fill-rule="evenodd" clip-rule="evenodd" d="M451 3.70996C460.941 3.70996 469 11.7688 469 21.71V131.71C469 157.667 490.043 178.71 516 178.71C541.957 178.71 563 157.667 563 131.71V21.71C563 11.7688 571.059 3.70996 581 3.70996C590.941 3.70996 599 11.7688 599 21.71V131.71C599 177.55 561.84 214.71 516 214.71C470.16 214.71 433 177.55 433 131.71V21.71C433 11.7688 441.059 3.70996 451 3.70996Z" fill="white"/>
<path fill-rule="evenodd" clip-rule="evenodd" d="M625.5 20.71C625.5 10.7688 633.559 2.70996 643.5 2.70996H665C700.346 2.70996 729 31.3637 729 66.71V199.21C729 209.151 720.941 217.21 711 217.21C701.059 217.21 693 209.151 693 199.21V66.71C693 51.246 680.464 38.71 665 38.71H643.5C633.559 38.71 625.5 30.6511 625.5 20.71Z" fill="white"/>
<path fill-rule="evenodd" clip-rule="evenodd" d="M654 21C654 11.0589 662.059 3 672 3L754 3.00001C763.941 3.00001 772 11.0589 772 21C772 30.9411 763.941 39 754 39L672 39C662.059 39 654 30.9411 654 21Z" fill="white"/>
</svg>