<svg width="29" height="29" viewBox="0 0 29 29" fill="none" xmlns="http://www.w3.org/2000/svg">
<g clip-path="url(#clip0_21_13)">
<path fill-rule="evenodd" clip-rule="evenodd" d="M4 8.45817C4 7.12348 5.08198 6.0415 6.41667 6.0415H22.75C24.0847 6.0415 25.1667 7.12348 25.1667 8.45817V10.8748H21.5417C19.5396 10.8748 17.9167 12.4977 17.9167 14.4998C17.9167 16.5019 19.5396 18.1248 21.5417 18.1248H25.1667V20.5415C25.1667 21.8762 24.0847 22.9582 22.75 22.9582H6.41667C5.08198 22.9582 4 21.8762 4 20.5415V8.45817ZM21.5418 15.7082C22.2092 15.7082 22.7502 15.1672 22.7502 14.4998C22.7502 13.8325 22.2092 13.2915 21.5418 13.2915C20.8745 13.2915 20.3335 13.8325 20.3335 14.4998C20.3335 15.1672 20.8745 15.7082 21.5418 15.7082Z" fill="#687287"/>
</g>
<defs>
<clipPath id="clip0_21_13">
<rect width="29" height="29" fill="white"/>
</clipPath>
</defs>
</svg>